<svg width="52" height="38" fill="none" xmlns="http://www.w3.org/2000/svg"><path d="M27.167 5.333A4.65 4.65 0 0131.833.667H40a4.68 4.68 0 014.667 4.666v5.04C41.96 11.33 40 13.897 40 16.93v4.737H27.167V5.333zM12 16.907v4.76h12.833V5.333A4.65 4.65 0 0020.167.667H12a4.68 4.68 0 00-4.667 4.666v5.017C10.04 11.307 12 13.897 12 16.907zm34.207-4.504c-2.287.374-3.874 2.544-3.874 4.877V24H9.667v-7a4.667 4.667 0 00-9.334 0v11.667A4.68 4.68 0 005 33.333V38h4.667v-4.667h32.666V38H47v-4.667a4.68 4.68 0 004.667-4.666V17c0-2.823-2.544-5.087-5.46-4.597z" fill="#434343"/></svg>